<svg xmlns="http://www.w3.org/2000/svg" viewBox="0 0 100 100" fill="none" role="img" aria-label="TaxVolca icon light">
  <defs>
    <linearGradient id="goldGradL" x1="0" y1="1" x2="0" y2="0">
      <stop offset="0%" stop-color="#B8960F"/>
      <stop offset="100%" stop-color="#D4AF37"/>
    </linearGradient>
    <linearGradient id="emeraldGradL" x1="0" y1="1" x2="1" y2="0">
      <stop offset="0%" stop-color="#0A9E58"/>
      <stop offset="100%" stop-color="#14B86A"/>
    </linearGradient>
  </defs>
  <path d="M50 6 L84 24 L84 76 L50 94 L16 76 L16 24 Z" stroke="#0B1F3A" stroke-width="1.2" fill="none" opacity="0.2"/>
  <path d="M50 14 L76 28 L76 72 L50 86 L24 72 L24 28 Z" stroke="#0B1F3A" stroke-width="0.6" fill="none" opacity="0.1"/>
  <path d="M32 32 L18 26 M32 32 L18 74 M68 32 L82 26 M68 32 L82 74 M50 82 L50 94" stroke="#0B1F3A" stroke-width="0.8" opacity="0.15"/>
  <path d="M50 32 L50 10" stroke="url(#goldGradL)" stroke-width="1.5" stroke-linecap="round" opacity="0.6"/>
  <path d="M50 84 L32 34" stroke="url(#goldGradL)" stroke-width="7" stroke-linecap="round"/>
  <path d="M50 84 L68 34" stroke="url(#goldGradL)" stroke-width="7" stroke-linecap="round"/>
  <path d="M14 60 Q50 76 86 60" stroke="url(#emeraldGradL)" stroke-width="1" fill="none" opacity="0.5"/>
  <path d="M50 94 Q64 65 50 14" stroke="url(#emeraldGradL)" stroke-width="0.6" fill="none" opacity="0.3"/>
  <circle cx="50" cy="84" r="3" fill="url(#goldGradL)"/>
  <circle cx="32" cy="34" r="2.5" fill="url(#goldGradL)"/>
  <circle cx="68" cy="34" r="2.5" fill="url(#goldGradL)"/>
  <circle cx="50" cy="10" r="2" fill="url(#goldGradL)"/>
</svg>
